# xmcd
#
# Track frame offsets:
# 150
# 19346
# 33870
# 48956
# 64371
# 79405
# 95816
# 112153
# 136131
# 154284
# 174393
# 191127
# 206946
# 219841
# 236398
# 250745
#
# Disc length: 3525 seconds
#
#
# Revision: 0
# Processed by: cddbd v1.5.2PL0 Copyright (c) Steve Scherf et al.
# Submitted via: FreeRIP 2.951 
#
DISCID=e70dc310
DTITLE=Alabama - 16 Biggest Hits
DYEAR=1900
DGENRE=Country
TTITLE0=Mountain Music
TTITLE1=Song of the South
TTITLE2=Love In the First Degree
TTITLE3=If You're Gonna Play In Texas (You Gotta Have a Fiddle in the Band)
TTITLE4=Born Country
TTITLE5=Feels So Right
TTITLE6=The Closer You Get
TTITLE7=She and I
TTITLE8=Fallin' Again
TTITLE9=Roll On (Eighteen Wheeler)
TTITLE10=Jukebox In My Mind
TTITLE11=Down Home
TTITLE12=I'm In a Hurry (And Don't Know Why)
TTITLE13=Can't Keep a Good Man Down
TTITLE14=Southern Star
TTITLE15=High Cotton
EXTD=
EXTT0=
EXTT1=
EXTT2=
EXTT3=
EXTT4=
EXTT5=
EXTT6=
EXTT7=
EXTT8=
EXTT9=
EXTT10=
EXTT11=
EXTT12=
EXTT13=
EXTT14=
EXTT15=
PLAYORDER=
